PathFileType	4	(X/Y/Z)	C:\Users\Basilio\Documents\Thesis Gigler\squatting_fais\c3dfiles\041\SJ_pre2\markers_experimental.trc
DataRate	CameraRate	NumFrames	NumMarkers	Units	OrigDataRate	OrigDataStartFrame	OrigNumFrames
200.000000	200.000000	4	62	mm	200.000000	1216	1390
Frame#	Time	FHD			LBHD			RBHD			C7			T10			CLAV			LSHO			LUUPA			LMUPA			LDUPA			LLEP			LMEP			LRAD			LUL			LRFIN			RSHO			RUPA1			RMUPA			RDUPA			RLEP			RMEP			RRAD			RUL			RUFIN			LASI			RASI			USACR			LSACR			RSACR			LTHI1			LTHI2			LTHI3			LTHI4			LLFC			LMFC			LTIB1			LTIB2			LTIB3			LTIB4			LLMAL			LMMAL			LHEE			LMT1			LMT2			LMT5			RTHI			RTHI2			RTHI3			RTHI4			RLFC			RMFC			RTIB1			RTIB2			RTIB3			RTIB4			RLMAL			RMMAL			RHEE			RMT1			RMT2			RMT5			*61			
		X1	Y1	Z1	X2	Y2	Z2	X3	Y3	Z3	X4	Y4	Z4	X5	Y5	Z5	X6	Y6	Z6	X7	Y7	Z7	X8	Y8	Z8	X9	Y9	Z9	X10	Y10	Z10	X11	Y11	Z11	X12	Y12	Z12	X13	Y13	Z13	X14	Y14	Z14	X15	Y15	Z15	X16	Y16	Z16	X17	Y17	Z17	X18	Y18	Z18	X19	Y19	Z19	X20	Y20	Z20	X21	Y21	Z21	X22	Y22	Z22	X23	Y23	Z23	X24	Y24	Z24	X25	Y25	Z25	X26	Y26	Z26	X27	Y27	Z27	X28	Y28	Z28	X29	Y29	Z29	X30	Y30	Z30	X31	Y31	Z31	X32	Y32	Z32	X33	Y33	Z33	X34	Y34	Z34	X35	Y35	Z35	X36	Y36	Z36	X37	Y37	Z37	X38	Y38	Z38	X39	Y39	Z39	X40	Y40	Z40	X41	Y41	Z41	X42	Y42	Z42	X43	Y43	Z43	X44	Y44	Z44	X45	Y45	Z45	X46	Y46	Z46	X47	Y47	Z47	X48	Y48	Z48	X49	Y49	Z49	X50	Y50	Z50	X51	Y51	Z51	X52	Y52	Z52	X53	Y53	Z53	X54	Y54	Z54	X55	Y55	Z55	X56	Y56	Z56	X57	Y57	Z57	X58	Y58	Z58	X59	Y59	Z59	X60	Y60	Z60	X61	Y61	Z61	X62	Y62	Z62	

1217	6.08	-195.9785614013672	1754.795654296875	-924.988952636719	-343.2302856445313	1659.395751953125	-1027.647094726563	-343.8288574218751	1653.8486328125	-874.7263793945315	-370.6547851562501	1519.130493164063	-970.7879638671877	-392.5007629394532	1202.7958984375	-969.7642211914065	-207.8998565673829	1461.9609375	-960.5039062500002	-268.0753479003907	1511.372314453125	-1140.9072265625	-328.9867553710938	1374.582763671875	-1277.913208007813	-311.4407043457032	1328.080200195313	-1274.632934570313	-356.0338745117188	1323.32421875	-1316.400756835938	-372.3915710449219	1277.61572265625	-1339.453857421875	-430.8854370117189	1245.098510742188	-1275.363647460938	-293.4368591308594	1087.1416015625	-1169.34765625	-278.1497497558594	1043.644897460938	-1228.64794921875	-244.4121246337891	1067.31201171875	-1130.874145507813	-278.2968444824219	1513.656494140625	-790.2012329101565	-362.7678833007813	1376.284790039063	-636.6958618164064	-324.2785949707032	1342.728271484375	-639.3065795898439	-356.9418945312501	1315.385986328125	-600.0788574218751	-360.0592956542969	1267.742431640625	-581.3955688476564	-430.7113342285157	1248.896362304688	-641.0960083007814	-333.9596557617188	1072.55810546875	-747.6652221679689	-287.4206848144532	1060.2841796875	-786.993591308594	-312.9504394531251	1027.651245117188	-689.2754516601564	-211.9637145996094	1008.929809570313	-1062.22998046875	-237.9021911621094	1002.76708984375	-843.8532714843752	-399.8043518066407	1093.003295898438	-970.558532714844	-412.5892028808595	1067.99462890625	-998.8482666015627	-423.1867675781251	1068.5068359375	-945.565368652344	-353.0719299316407	826.595397949219	-1167.737182617188	-328.8481140136719	745.0861206054689	-1172.538696289063	-281.8150939941407	741.3341064453126	-1159.289794921875	-365.5035400390626	696.1561889648439	-1169.427734375	-373.7964782714844	515.9863891601564	-1177.569458007813	-369.1696777343751	479.5407104492189	-1063.25341796875	-347.7420043945313	319.7852478027344	-1153.104370117188	-396.2491760253907	287.3153991699219	-1221.269287109375	-358.7731018066407	279.0093383789063	-1196.25732421875	-359.2943420410157	197.1807403564454	-1176.6279296875	-416.9180297851564	102.3653564453125	-1229.122802734375	-377.5168457031251	103.3983993530274	-1148.296020507813	-473.4351501464845	53.17971038818361	-1197.140869140625	-255.8250427246094	59.47238540649415	-1170.264282226563	-249.8830871582032	58.76602172851564	-1214.7509765625	-288.4755249023438	33.49364471435548	-1271.235107421875	-386.1738891601564	767.9884643554689	-765.7874755859376	-354.0481872558594	710.1961059570314	-753.9138793945314	-320.7062988281251	707.9418334960939	-756.6682128906251	-387.1799926757814	633.1600952148439	-765.9058837890626	-389.9891357421876	506.799530029297	-751.2562255859376	-367.0016174316407	473.5454101562501	-865.1276855468752	-353.0686035156251	340.9186401367188	-736.7208251953126	-432.7155151367189	264.2151184082032	-715.6849975585939	-385.6968994140626	263.3614807128907	-713.3315429687501	-360.5085754394532	213.0905303955079	-734.6778564453126	-412.0027465820314	95.30541229248048	-709.0362548828126	-379.8469848632813	101.0167846679688	-786.8367309570315	-465.418182373047	49.73291397094728	-754.9268188476564	-246.3452301025391	53.20799636840822	-753.4121093750001	-246.4312438964844	56.64493560791017	-701.0408325195314	-292.0428771972657	35.96986770629884	-653.0212402343751	-4217.008789062501	853.1802368164065	-3944.806396484376	
1218	6.085	-196.2517089843751	1754.88037109375	-924.7053833007815	-343.4269409179688	1659.43505859375	-1027.612670898438	-343.9273681640626	1653.847900390625	-874.653747558594	-370.8360900878907	1519.097534179688	-970.6818847656252	-392.5205078125001	1202.898803710938	-969.6682128906252	-208.0731048583985	1462.036499023438	-960.2380371093752	-268.2389221191407	1511.404174804688	-1140.682983398438	-329.1713867187501	1374.676391601563	-1277.748046875	-311.6703186035157	1328.16552734375	-1274.384887695313	-356.3041992187501	1323.396484375	-1316.124267578125	-372.7211914062501	1277.706176757813	-1339.162841796875	-431.1102905273439	1245.170654296875	-1275.059326171875	-293.5433044433594	1087.19287109375	-1169.174926757813	-278.3404846191407	1043.7060546875	-1228.466186523438	-244.4952850341797	1067.359375	-1130.724609375	-278.4908142089844	1513.673706054688	-790.0495605468752	-362.9688415527344	1376.41259765625	-636.5474853515626	-324.5253906250001	1342.93896484375	-639.1527709960939	-357.0836486816407	1315.476440429688	-599.9866943359376	-360.2880859375001	1267.826171875	-581.2265625000001	-430.9854736328126	1249.029174804688	-640.9440917968751	-334.2408142089844	1072.735595703125	-747.4947509765626	-287.7010498046876	1060.618041992188	-786.9104614257815	-313.1487121582032	1027.865966796875	-689.1419677734376	-211.9817962646485	1009.054565429688	-1062.045532226563	-237.7784881591797	1003.118896484375	-843.7145996093752	-399.8241271972657	1093.037353515625	-970.4785766601565	-412.6654357910157	1068.03564453125	-998.7877197265627	-423.2289428710939	1068.515991210938	-945.4550781250002	-352.8939514160157	826.6019287109377	-1167.553344726563	-328.4779663085938	745.1670532226564	-1172.358520507813	-281.4842224121094	741.3442993164064	-1159.182373046875	-365.0561523437501	695.9562988281251	-1169.300048828125	-373.2002563476563	515.9326782226564	-1177.424072265625	-368.3896179199219	479.4030761718751	-1063.1953125	-347.1751098632813	319.8054809570313	-1153.0712890625	-395.472625732422	286.7545471191407	-1221.220703125	-358.6268615722657	278.9435119628907	-1196.1953125	-359.1604309082032	197.1576385498047	-1176.580078125	-416.8548889160157	102.3805236816407	-1229.063842773438	-377.4966735839844	103.4187088012696	-1148.22900390625	-473.3938903808595	53.19783020019533	-1197.109985351563	-255.7602081298829	59.44788360595705	-1170.254272460938	-249.8100128173829	58.77117919921876	-1214.760498046875	-288.4578552246094	33.50128555297852	-1271.232666015625	-386.0831298828126	767.9728393554689	-765.7545166015626	-353.9241943359376	710.1760864257814	-753.8515625000001	-320.5530700683594	707.9996948242189	-756.5709838867189	-387.0389709472657	633.1782836914064	-765.8770141601564	-389.8188476562501	506.7891540527345	-751.1966552734376	-366.8143310546876	473.5344848632814	-865.1043090820315	-352.7958679199219	340.9000244140626	-736.7935180664064	-432.5574035644532	264.1933288574219	-715.6649780273439	-385.5518188476564	263.2849731445313	-713.2797851562501	-360.4068908691407	213.0829162597657	-734.6400146484376	-412.0128173828126	95.31758117675783	-709.0205078125001	-379.8450622558594	101.014877319336	-786.863220214844	-465.4147033691407	49.7316131591797	-754.8812255859376	-246.3754577636719	53.24829483032228	-753.4340209960939	-246.4216308593751	56.63499069213869	-700.9906616210939	-292.0455627441407	35.96711349487305	-653.0244750976564	-4217.572265625001	853.2796630859377	-3944.735595703126	
1219	6.09	-196.5496673583985	1755.088500976563	-924.514343261719	-343.5061340332032	1659.422607421875	-1027.479736328125	-344.0191345214844	1653.875854492188	-874.5947875976565	-370.8128662109376	1519.175903320313	-970.5434570312502	-392.637908935547	1203.03369140625	-969.5618896484377	-208.2552337646485	1462.051025390625	-959.9685058593752	-268.7015686035157	1511.497192382813	-1140.452880859375	-329.4239501953126	1374.81103515625	-1277.522338867188	-311.9201660156251	1328.210571289063	-1274.147094726563	-356.5899963378907	1323.395141601563	-1315.828857421875	-372.9042968750001	1277.749267578125	-1338.93505859375	-431.3037414550782	1245.207397460938	-1274.725708007813	-293.6825866699219	1087.261840820313	-1168.980590820313	-278.4224548339844	1043.749389648438	-1228.30078125	-244.5477905273438	1067.445556640625	-1130.580932617188	-278.6453247070313	1513.770263671875	-789.9139404296877	-363.3584289550782	1376.463745117188	-636.4284667968751	-324.7933654785157	1343.142211914063	-638.9800415039064	-357.5789489746094	1315.574096679688	-599.7177734375001	-360.3747558593751	1268.130615234375	-581.4366455078126	-431.1945190429689	1249.209228515625	-640.8572998046876	-334.4952392578126	1072.943359375	-747.3288574218751	-287.7240295410157	1060.78076171875	-786.813415527344	-313.2682800292969	1027.970581054688	-688.9715576171876	-212.007553100586	1009.294860839844	-1061.839111328125	-237.8242950439454	1003.322875976563	-843.5471191406252	-399.8741149902345	1093.069580078125	-970.425476074219	-412.6192321777345	1068.016845703125	-998.7368774414065	-423.2621154785157	1068.54931640625	-945.3958740234377	-352.6434326171876	826.5406494140627	-1167.369750976563	-328.1301269531251	745.1564331054689	-1172.208374023438	-281.0831909179688	741.4101562500001	-1159.056640625	-364.7425537109376	695.9638671875001	-1169.146362304688	-372.6856994628907	515.8875122070314	-1177.241333007813	-367.8672790527344	479.2894592285157	-1063.10205078125	-346.9690246582032	319.6707153320313	-1152.955200195313	-395.0036926269532	286.8617858886719	-1220.995727539063	-358.1857604980469	279.0307617187501	-1196.171142578125	-359.0221557617188	197.1305236816407	-1176.457397460938	-417.0264892578126	102.336296081543	-1229.133422851563	-377.4478759765626	103.4082946777344	-1148.196533203125	-473.3967285156251	53.25377273559572	-1197.051635742188	-255.7747955322266	59.39591598510744	-1170.199096679688	-249.8465576171876	58.68997192382814	-1214.709838867188	-288.4704589843751	33.51906967163087	-1271.196533203125	-385.9438781738282	767.9920654296876	-765.7440795898439	-353.8331604003907	710.1817626953126	-753.8200683593751	-320.4166259765626	708.0758666992189	-756.5369873046876	-386.7796936035157	633.1290893554689	-765.7748413085939	-389.6281738281251	506.8024902343751	-751.1246337890626	-366.6286010742188	473.5813598632814	-865.0234375000002	-352.5858764648438	340.8998718261719	-736.7141113281251	-432.4412536621095	264.2103576660157	-715.6262817382814	-385.414031982422	263.3017883300782	-713.2596435546876	-360.3314819335938	213.0731048583985	-734.5985717773439	-411.9880676269532	95.32480621337892	-709.0556640625001	-379.8538513183594	101.0143127441407	-786.8510742187502	-465.3806762695314	49.73609161376955	-754.9189453125001	-246.3340301513672	53.23321914672853	-753.4215087890626	-246.4302673339844	56.63229370117189	-700.9913330078126	-292.0305175781251	35.97976684570313	-653.0438842773439	-4217.256835937501	853.2205810546877	-3944.733886718751	
1220	6.095	-196.7799835205079	1755.374389648438	-924.299499511719	-343.6291198730469	1659.448608398438	-1027.391479492188	-344.2594604492188	1653.875122070313	-874.4612426757815	-370.8981628417969	1519.280151367188	-970.3758544921877	-392.6866760253907	1203.15185546875	-969.4436645507815	-208.2707519531251	1462.21533203125	-959.7534179687502	-268.9104309082032	1511.505126953125	-1140.252685546875	-329.7146606445313	1374.8251953125	-1277.188720703125	-312.0653686523438	1328.305053710938	-1273.99267578125	-356.8559570312501	1323.320434570313	-1315.472900390625	-373.2427673339844	1277.807495117188	-1338.67236328125	-431.5513305664064	1245.199340820313	-1274.467529296875	-293.7211608886719	1087.325927734375	-1168.77490234375	-278.6484985351563	1043.90771484375	-1228.18212890625	-244.5830688476563	1067.534423828125	-1130.428833007813	-278.7067871093751	1513.825073242188	-789.8377685546877	-363.7209167480469	1376.49560546875	-636.2121582031251	-324.8960876464844	1343.274291992188	-638.8895263671876	-357.7244567871094	1315.71533203125	-599.6353759765626	-360.5092468261719	1268.2216796875	-581.2918090820314	-431.4655761718751	1249.436889648438	-640.7383422851564	-334.6774902343751	1073.126342773438	-747.2090454101564	-287.8775634765626	1060.971923828125	-786.653015136719	-313.6116027832032	1028.13232421875	-688.7693481445314	-211.9632110595704	1009.417358398438	-1061.732055664063	-237.7642822265626	1003.526489257813	-843.3338012695315	-399.920623779297	1093.098388671875	-970.3504028320315	-412.6618652343751	1068.029663085938	-998.6988525390627	-423.3591918945314	1068.53515625	-945.3710937500002	-352.4464111328126	826.523132324219	-1167.150634765625	-327.6841125488282	745.1376953125001	-1172.0234375	-280.6969604492188	741.3912353515626	-1158.926635742188	-364.3136291503907	695.9228515625001	-1169.0263671875	-372.1119689941407	515.9471435546876	-1177.12890625	-367.2952270507813	479.3160095214845	-1063.116821289063	-346.6522827148438	319.7304687500001	-1152.862915039063	-394.7392883300782	286.9058837890626	-1220.948608398438	-357.9185180664063	279.0171813964844	-1196.15234375	-358.8453063964844	197.0842895507813	-1176.24951171875	-417.000213623047	102.3708190917969	-1229.126586914063	-377.4122924804688	103.4100494384766	-1148.10205078125	-473.3616943359376	53.2753143310547	-1197.016235351563	-255.7210693359376	59.42089843750001	-1170.192016601563	-249.8418731689454	58.70442962646486	-1214.736572265625	-288.4656677246094	33.50143432617188	-1271.191650390625	-385.8244018554689	767.8732910156251	-765.6556396484376	-353.5998229980469	710.2014160156251	-753.7805175781251	-320.2147827148438	708.1914062500001	-756.3543701171876	-386.5771789550782	633.1386108398439	-765.7037963867189	-389.3233032226564	506.7661437988282	-751.0139770507814	-366.4404907226563	473.5430908203126	-864.9324340820315	-352.3422546386719	340.8221740722657	-736.6510620117189	-432.3192138671876	264.2283630371094	-715.5993041992189	-385.2232360839845	263.1925964355469	-713.2605590820314	-360.2644653320313	213.0323486328126	-734.5714721679689	-411.9898986816407	95.32260894775392	-709.0571289062501	-379.7853698730469	101.0281143188477	-786.8425292968752	-465.3793945312501	49.72863006591798	-754.9173583984376	-246.3297424316407	53.21306610107423	-753.4027099609376	-246.4698028564454	56.67656326293947	-701.0505981445314	-291.9917602539063	36.00823974609376	-653.0601806640626	-4216.961914062501	853.1503906250002	-3944.601318359376	
